M48
;DRILL file {KiCad (5.0.1)-4} date 3/27/2019 7:27:36 AM
;FORMAT={-:-/ absolute / metric / decimal}
FMAT,2
METRIC,TZ
T1C0.300
T2C0.990
T3C1.000
T4C1.092
T5C1.300
T6C1.200
T7C1.750
T8C3.000
T9C3.048
T10C3.988
%
G90
G05
M71
T1
X20.538Y-38.1
X20.538Y-66.675
X20.538Y-85.725
X20.538Y-104.775
X20.538Y-123.825
X21.49Y-35.123
X21.49Y-102.394
X40.54Y-34.826
X40.54Y-102.989
X59.59Y-103.584
X59.829Y-22.622
X78.64Y-104.18
X78.879Y-22.324
X97.036Y-46.137
X97.277Y-81.558
X97.277Y-101.203
X97.277Y-122.07
X97.334Y-36.909
X97.631Y-49.709
X97.929Y-123.198
X98.226Y-52.685
X98.822Y-67.568
X101.501Y-54.173
X102.452Y-104.775
X103.584Y-58.341
X107.156Y-43.16
X118.467Y-64.095
X121.444Y-23.217
X121.502Y-105.37
X140.494Y-35.075
X140.552Y-83.344
X164.365Y-37.667
X169.128Y-83.939
X183.415Y-37.301
X192.94Y-84.534
X202.465Y-36.935
X216.157Y-85.13
X221.515Y-36.612
X254.719Y-102.394
X273.173Y-102.989
X291.628Y-103.584
X304.204Y-122.008
X310.083Y-104.18
X328.537Y-104.775
X346.992Y-105.37
X365.224Y-36.345
X366.713Y-83.344
X386.358Y-83.939
X406.003Y-84.534
X437.151Y-85.13
T2
X364.212Y-22.046
X369.212Y-22.046
T3
X36.909Y-29.109
X36.909Y-36.909
X270.272Y-93.403
X270.272Y-101.203
X75.009Y-29.109
X75.009Y-36.909
X195.263Y-111.263
X195.263Y-119.063
X232.172Y-132.694
X232.172Y-140.494
X155.972Y-132.694
X155.972Y-140.494
X94.059Y-132.694
X94.059Y-140.494
X94.059Y-114.834
X94.059Y-122.634
X55.959Y-74.353
X55.959Y-82.153
X294.085Y-57.684
X294.085Y-65.484
X360.76Y-74.353
X360.76Y-82.153
X217.885Y-57.684
X217.885Y-65.484
X117.872Y-74.353
X117.872Y-82.153
X75.009Y-57.684
X75.009Y-65.484
X136.922Y-74.353
X136.922Y-82.153
X75.009Y-74.353
X75.009Y-82.153
X55.959Y-29.109
X55.959Y-36.909
X341.71Y-29.109
X341.71Y-36.909
X394.097Y-113.644
X394.097Y-121.444
X275.035Y-29.109
X275.035Y-36.909
X308.372Y-93.403
X308.372Y-101.203
X241.697Y-113.644
X241.697Y-121.444
X375.047Y-113.644
X375.047Y-121.444
X327.422Y-93.403
X327.422Y-101.203
X284.56Y-74.353
X284.56Y-82.153
X275.035Y-57.684
X275.035Y-65.484
X303.61Y-74.353
X303.61Y-82.153
X198.835Y-57.684
X198.835Y-65.484
X389.335Y-57.684
X389.335Y-65.484
X420.291Y-74.353
X420.291Y-82.153
X213.122Y-93.403
X213.122Y-101.203
X375.047Y-132.694
X375.047Y-140.494
X217.885Y-29.109
X217.885Y-36.909
X279.797Y-113.644
X279.797Y-121.444
X136.922Y-114.834
X136.922Y-122.634
X208.36Y-132.694
X208.36Y-140.494
X222.647Y-113.644
X222.647Y-121.444
X433.388Y-111.263
X433.388Y-119.063
X332.185Y-57.684
X332.185Y-65.484
X255.985Y-57.684
X255.985Y-65.484
X351.235Y-57.684
X351.235Y-65.484
X408.385Y-29.109
X408.385Y-36.909
X251.222Y-93.403
X251.222Y-101.203
X417.91Y-74.353
X417.91Y-82.153
X55.959Y-93.403
X55.959Y-101.203
X425.053Y-132.694
X425.053Y-140.494
X322.66Y-29.109
X322.66Y-36.909
X236.935Y-29.109
X236.935Y-36.909
X365.522Y-93.403
X365.522Y-101.203
X55.959Y-114.834
X55.959Y-122.634
X317.897Y-113.644
X317.897Y-121.444
X384.572Y-93.403
X384.572Y-101.203
X75.009Y-132.694
X75.009Y-140.494
X36.909Y-93.403
X36.909Y-101.203
X227.41Y-74.353
X227.41Y-82.153
X236.935Y-57.684
X236.935Y-65.484
X322.66Y-74.353
X322.66Y-82.153
X98.822Y-57.684
X98.822Y-65.484
X194.072Y-93.403
X194.072Y-101.203
X341.71Y-74.353
X341.71Y-82.153
X75.009Y-93.403
X75.009Y-101.203
X303.014Y-129.717
X303.014Y-137.517
X189.31Y-29.109
X189.31Y-36.909
X136.922Y-29.109
X136.922Y-36.909
X346.472Y-93.403
X346.472Y-101.203
X422.672Y-132.694
X422.672Y-140.494
X403.622Y-93.403
X403.622Y-101.203
X184.547Y-132.694
X184.547Y-140.494
X136.922Y-132.694
X136.922Y-140.494
X55.959Y-132.694
X55.959Y-140.494
X313.135Y-57.684
X313.135Y-65.484
X429.816Y-31.491
X429.816Y-39.291
X379.81Y-74.353
X379.81Y-82.153
X389.335Y-29.109
X389.335Y-36.909
X265.51Y-74.353
X265.51Y-82.153
X55.959Y-57.684
X55.959Y-65.484
X370.285Y-57.684
X370.285Y-65.484
X189.31Y-74.353
X189.31Y-82.153
X398.86Y-132.694
X398.86Y-140.494
X94.059Y-29.109
X94.059Y-36.909
X336.947Y-113.644
X336.947Y-121.444
X75.009Y-114.834
X75.009Y-122.634
X298.847Y-113.644
X298.847Y-121.444
X414.338Y-92.213
X414.338Y-100.013
X36.909Y-132.694
X36.909Y-140.494
X408.385Y-57.684
X408.385Y-65.484
X36.909Y-57.684
X36.909Y-65.484
X410.766Y-57.684
X410.766Y-65.484
X94.059Y-57.684
X94.059Y-65.484
X208.36Y-74.353
X208.36Y-82.153
X427.435Y-29.109
X427.435Y-36.909
X232.172Y-93.403
X232.172Y-101.203
X94.059Y-74.353
X94.059Y-82.153
X303.61Y-29.109
X303.61Y-36.909
X360.76Y-29.109
X360.76Y-36.909
X255.985Y-29.109
X255.985Y-36.909
X260.747Y-113.644
X260.747Y-121.444
X289.322Y-93.403
X289.322Y-101.203
X36.909Y-114.834
X36.909Y-122.634
X117.872Y-132.694
X117.872Y-140.494
X355.997Y-113.644
X355.997Y-121.444
X398.86Y-74.353
X398.86Y-82.153
X179.785Y-57.684
X179.785Y-65.484
X36.909Y-74.353
X36.909Y-82.153
X136.922Y-57.684
X136.922Y-65.484
X246.46Y-74.353
X246.46Y-82.153
X155.972Y-57.684
X155.972Y-65.484
X94.059Y-93.403
X94.059Y-101.203
X155.972Y-74.353
X155.972Y-82.153
T4
X99.536Y-22.939
X99.536Y-25.479
X99.536Y-28.019
X99.536Y-30.559
X99.536Y-33.099
X99.536Y-35.639
X99.536Y-38.179
X99.536Y-40.719
X99.536Y-43.259
X99.536Y-45.799
X99.536Y-48.339
X99.765Y-50.879
X102.076Y-50.879
X104.616Y-50.879
X107.156Y-50.879
X109.696Y-50.879
X112.236Y-50.879
X114.776Y-22.939
X114.776Y-25.479
X114.776Y-28.019
X114.776Y-30.559
X114.776Y-33.099
X114.776Y-35.639
X114.776Y-38.179
X114.776Y-40.719
X114.776Y-43.259
X114.776Y-45.799
X114.776Y-48.339
X114.776Y-50.879
T5
X363.202Y-24.536
X370.212Y-24.536
T6
X366.712Y-20.836
T7
X142.558Y-57.15
X152.718Y-57.15
X328.295Y-28.575
X338.455Y-28.575
X404.495Y-76.2
X414.655Y-76.2
X204.47Y-57.15
X214.63Y-57.15
X271.145Y-76.2
X281.305Y-76.2
X42.545Y-76.2
X52.705Y-76.2
X309.245Y-76.2
X319.405Y-76.2
X178.276Y-114.3
X188.436Y-114.3
X61.595Y-114.3
X71.755Y-114.3
X256.858Y-95.25
X267.018Y-95.25
X142.558Y-133.35
X152.718Y-133.35
X430.689Y-133.35
X440.849Y-133.35
X285.432Y-114.3
X295.592Y-114.3
X80.645Y-28.575
X90.805Y-28.575
X171.132Y-28.575
X181.292Y-28.575
X261.62Y-28.575
X271.78Y-28.575
X123.508Y-57.15
X133.668Y-57.15
X242.57Y-28.575
X252.73Y-28.575
X375.92Y-57.15
X386.08Y-57.15
X366.395Y-76.2
X376.555Y-76.2
X142.558Y-76.2
X152.718Y-76.2
X385.445Y-76.2
X395.605Y-76.2
X394.97Y-57.15
X405.13Y-57.15
X123.508Y-114.3
X133.668Y-114.3
X23.495Y-114.3
X33.655Y-114.3
X123.508Y-133.35
X133.668Y-133.35
X428.308Y-76.2
X438.468Y-76.2
X80.645Y-133.35
X90.805Y-133.35
X423.545Y-57.15
X433.705Y-57.15
X42.545Y-57.15
X52.705Y-57.15
X414.02Y-28.575
X424.18Y-28.575
X223.52Y-28.575
X233.68Y-28.575
X299.72Y-57.15
X309.88Y-57.15
X23.495Y-95.25
X33.655Y-95.25
X80.645Y-76.2
X90.805Y-76.2
X328.295Y-76.2
X338.455Y-76.2
X318.77Y-57.15
X328.93Y-57.15
X42.545Y-114.3
X52.705Y-114.3
X390.208Y-95.25
X400.368Y-95.25
X23.495Y-133.35
X33.655Y-133.35
X304.482Y-114.3
X314.642Y-114.3
X406.876Y-133.35
X417.036Y-133.35
X61.595Y-28.575
X71.755Y-28.575
X342.582Y-114.3
X352.742Y-114.3
X23.495Y-28.575
X33.655Y-28.575
X309.245Y-28.575
X319.405Y-28.575
X80.645Y-57.15
X90.805Y-57.15
X356.87Y-57.15
X367.03Y-57.15
X252.095Y-76.2
X262.255Y-76.2
X61.595Y-76.2
X71.755Y-76.2
X233.045Y-76.2
X243.205Y-76.2
X23.495Y-76.2
X33.655Y-76.2
X80.645Y-114.3
X90.805Y-114.3
X371.158Y-95.25
X381.318Y-95.25
X42.545Y-133.35
X52.705Y-133.35
X266.382Y-114.3
X276.542Y-114.3
X433.07Y-28.575
X443.23Y-28.575
X323.532Y-114.3
X333.692Y-114.3
X287.814Y-133.35
X297.974Y-133.35
X185.42Y-57.15
X195.58Y-57.15
X61.595Y-57.15
X71.755Y-57.15
X171.132Y-76.2
X181.292Y-76.2
X337.82Y-57.15
X347.98Y-57.15
X347.345Y-76.2
X357.505Y-76.2
X123.508Y-76.2
X133.668Y-76.2
X61.595Y-95.25
X71.755Y-95.25
X242.57Y-57.15
X252.73Y-57.15
X218.758Y-95.25
X228.918Y-95.25
X314.008Y-95.25
X324.168Y-95.25
X333.058Y-95.25
X343.218Y-95.25
X216.376Y-133.35
X226.536Y-133.35
X104.458Y-133.35
X114.618Y-133.35
X359.251Y-133.35
X369.411Y-133.35
X247.332Y-114.3
X257.492Y-114.3
X104.458Y-57.15
X114.618Y-57.15
X166.37Y-57.15
X176.53Y-57.15
X394.97Y-28.575
X405.13Y-28.575
X194.945Y-76.2
X205.105Y-76.2
X280.67Y-57.15
X290.83Y-57.15
X173.514Y-95.25
X183.674Y-95.25
X104.458Y-76.2
X114.618Y-76.2
X290.195Y-76.2
X300.355Y-76.2
X228.282Y-114.3
X238.442Y-114.3
X199.708Y-95.25
X209.868Y-95.25
X294.958Y-95.25
X305.118Y-95.25
X192.564Y-133.35
X202.724Y-133.35
X61.595Y-133.35
X71.755Y-133.35
X237.808Y-95.25
X247.968Y-95.25
X416.401Y-114.3
X426.561Y-114.3
X380.682Y-114.3
X390.842Y-114.3
X123.508Y-28.575
X133.668Y-28.575
X347.345Y-28.575
X357.505Y-28.575
X23.495Y-57.15
X33.655Y-57.15
X375.92Y-28.575
X386.08Y-28.575
X80.645Y-95.25
X90.805Y-95.25
X261.62Y-57.15
X271.78Y-57.15
X213.995Y-76.2
X224.155Y-76.2
X223.52Y-57.15
X233.68Y-57.15
X42.545Y-95.25
X52.705Y-95.25
X209.232Y-114.3
X219.392Y-114.3
X352.108Y-95.25
X362.268Y-95.25
X275.908Y-95.25
X286.068Y-95.25
X168.751Y-133.35
X178.911Y-133.35
X421.164Y-95.25
X431.324Y-95.25
X361.632Y-114.3
X371.792Y-114.3
X383.064Y-133.35
X393.224Y-133.35
X42.545Y-28.575
X52.705Y-28.575
X204.47Y-28.575
X214.63Y-28.575
X290.195Y-28.575
X300.355Y-28.575
T8
X348.615Y-26.035
X354.965Y-23.495
X24.765Y-54.61
X31.115Y-52.07
X377.19Y-26.035
X383.54Y-23.495
X81.915Y-92.71
X88.265Y-90.17
X262.89Y-54.61
X269.24Y-52.07
X215.265Y-73.66
X221.615Y-71.12
X224.79Y-54.61
X231.14Y-52.07
X43.815Y-92.71
X50.165Y-90.17
X210.502Y-111.76
X216.852Y-109.22
X353.378Y-92.71
X359.728Y-90.17
X277.178Y-92.71
X283.528Y-90.17
X170.021Y-130.81
X176.371Y-128.27
X422.434Y-92.71
X428.784Y-90.17
X362.902Y-111.76
X369.252Y-109.22
X384.334Y-130.81
X390.684Y-128.27
X43.815Y-26.035
X50.165Y-23.495
X205.74Y-26.035
X212.09Y-23.495
X291.465Y-26.035
X297.815Y-23.495
X143.828Y-54.61
X150.178Y-52.07
X329.565Y-26.035
X335.915Y-23.495
X405.765Y-73.66
X412.115Y-71.12
X205.74Y-54.61
X212.09Y-52.07
X272.415Y-73.66
X278.765Y-71.12
X43.815Y-73.66
X50.165Y-71.12
X310.515Y-73.66
X316.865Y-71.12
X179.546Y-111.76
X185.896Y-109.22
X62.865Y-111.76
X69.215Y-109.22
X258.128Y-92.71
X264.478Y-90.17
X143.828Y-130.81
X150.178Y-128.27
X431.959Y-130.81
X438.309Y-128.27
X286.702Y-111.76
X293.052Y-109.22
X81.915Y-26.035
X88.265Y-23.495
X172.402Y-26.035
X178.752Y-23.495
X262.89Y-26.035
X269.24Y-23.495
X124.778Y-54.61
X131.128Y-52.07
X243.84Y-26.035
X250.19Y-23.495
X377.19Y-54.61
X383.54Y-52.07
X367.665Y-73.66
X374.015Y-71.12
X143.828Y-73.66
X150.178Y-71.12
X386.715Y-73.66
X393.065Y-71.12
X396.24Y-54.61
X402.59Y-52.07
X124.778Y-111.76
X131.128Y-109.22
X24.765Y-111.76
X31.115Y-109.22
X124.778Y-130.81
X131.128Y-128.27
X429.578Y-73.66
X435.928Y-71.12
X81.915Y-130.81
X88.265Y-128.27
X424.815Y-54.61
X431.165Y-52.07
X43.815Y-54.61
X50.165Y-52.07
X415.29Y-26.035
X421.64Y-23.495
X224.79Y-26.035
X231.14Y-23.495
X300.99Y-54.61
X307.34Y-52.07
X24.765Y-92.71
X31.115Y-90.17
X81.915Y-73.66
X88.265Y-71.12
X329.565Y-73.66
X335.915Y-71.12
X320.04Y-54.61
X326.39Y-52.07
X43.815Y-111.76
X50.165Y-109.22
X391.478Y-92.71
X397.828Y-90.17
X24.765Y-130.81
X31.115Y-128.27
X305.752Y-111.76
X312.102Y-109.22
X408.146Y-130.81
X414.496Y-128.27
X62.865Y-26.035
X69.215Y-23.495
X343.852Y-111.76
X350.202Y-109.22
X24.765Y-26.035
X31.115Y-23.495
X310.515Y-26.035
X316.865Y-23.495
X81.915Y-54.61
X88.265Y-52.07
X358.14Y-54.61
X364.49Y-52.07
X253.365Y-73.66
X259.715Y-71.12
X62.865Y-73.66
X69.215Y-71.12
X234.315Y-73.66
X240.665Y-71.12
X24.765Y-73.66
X31.115Y-71.12
X81.915Y-111.76
X88.265Y-109.22
X372.428Y-92.71
X378.778Y-90.17
X43.815Y-130.81
X50.165Y-128.27
X267.652Y-111.76
X274.002Y-109.22
X434.34Y-26.035
X440.69Y-23.495
X324.802Y-111.76
X331.152Y-109.22
X289.084Y-130.81
X295.434Y-128.27
X186.69Y-54.61
X193.04Y-52.07
X62.865Y-54.61
X69.215Y-52.07
X172.402Y-73.66
X178.752Y-71.12
X339.09Y-54.61
X345.44Y-52.07
X348.615Y-73.66
X354.965Y-71.12
X124.778Y-73.66
X131.128Y-71.12
X62.865Y-92.71
X69.215Y-90.17
X243.84Y-54.61
X250.19Y-52.07
X220.028Y-92.71
X226.378Y-90.17
X315.278Y-92.71
X321.628Y-90.17
X334.328Y-92.71
X340.678Y-90.17
X217.646Y-130.81
X223.996Y-128.27
X105.728Y-130.81
X112.078Y-128.27
X360.521Y-130.81
X366.871Y-128.27
X248.602Y-111.76
X254.952Y-109.22
X106.998Y-62.23
X113.348Y-59.69
X167.64Y-54.61
X173.99Y-52.07
X396.24Y-26.035
X402.59Y-23.495
X196.215Y-73.66
X202.565Y-71.12
X281.94Y-54.61
X288.29Y-52.07
X174.784Y-92.71
X181.134Y-90.17
X105.728Y-73.66
X112.078Y-71.12
X291.465Y-73.66
X297.815Y-71.12
X229.552Y-111.76
X235.902Y-109.22
X200.978Y-92.71
X207.328Y-90.17
X296.228Y-92.71
X302.578Y-90.17
X193.834Y-130.81
X200.184Y-128.27
X62.865Y-130.81
X69.215Y-128.27
X239.078Y-92.71
X245.428Y-90.17
X417.671Y-111.76
X424.021Y-109.22
X381.952Y-111.76
X388.302Y-109.22
X124.778Y-26.035
X131.128Y-23.495
T9
X242.894Y-140.335
X342.894Y-140.335
X409.543Y-107.315
X433.419Y-107.315
X414.306Y-88.265
X438.182Y-88.265
X171.418Y-107.315
X195.294Y-107.315
X416.687Y-50.165
X440.563Y-50.165
T10
X28.575Y-57.15
X381.Y-28.575
X85.725Y-95.25
X266.7Y-57.15
X219.075Y-76.2
X228.6Y-57.15
X47.625Y-95.25
X214.312Y-114.3
X357.188Y-95.25
X280.988Y-95.25
X173.831Y-133.35
X414.306Y-103.505
X426.244Y-95.25
X438.182Y-103.505
X366.712Y-114.3
X388.144Y-133.35
X47.625Y-28.575
X209.55Y-28.575
X295.275Y-28.575
X147.638Y-57.15
X333.375Y-28.575
X409.575Y-76.2
X209.55Y-57.15
X276.225Y-76.2
X47.625Y-76.2
X314.325Y-76.2
X171.418Y-122.555
X183.356Y-114.3
X195.294Y-122.555
X66.675Y-114.3
X261.938Y-95.25
X147.638Y-133.35
X435.769Y-133.35
X290.512Y-114.3
X85.725Y-28.575
X176.212Y-28.575
X266.7Y-28.575
X128.588Y-57.15
X247.65Y-28.575
X381.Y-57.15
X371.475Y-76.2
X147.638Y-76.2
X390.525Y-76.2
X400.05Y-57.15
X128.588Y-114.3
X28.575Y-114.3
X128.588Y-133.35
X433.388Y-76.2
X85.725Y-133.35
X416.687Y-65.405
X428.625Y-57.15
X440.563Y-65.405
X47.625Y-57.15
X419.1Y-28.575
X228.6Y-28.575
X304.8Y-57.15
X28.575Y-95.25
X85.725Y-76.2
X333.375Y-76.2
X323.85Y-57.15
X47.625Y-114.3
X395.288Y-95.25
X28.575Y-133.35
X309.562Y-114.3
X411.956Y-133.35
X66.675Y-28.575
X347.662Y-114.3
X28.575Y-28.575
X314.325Y-28.575
X85.725Y-57.15
X361.95Y-57.15
X257.175Y-76.2
X66.675Y-76.2
X238.125Y-76.2
X28.575Y-76.2
X85.725Y-114.3
X376.238Y-95.25
X47.625Y-133.35
X271.462Y-114.3
X438.15Y-28.575
X328.612Y-114.3
X242.894Y-125.095
X292.894Y-133.35
X342.894Y-125.095
X190.5Y-57.15
X66.675Y-57.15
X176.212Y-76.2
X342.9Y-57.15
X352.425Y-76.2
X128.588Y-76.2
X66.675Y-95.25
X247.65Y-57.15
X223.838Y-95.25
X319.088Y-95.25
X338.138Y-95.25
X221.456Y-133.35
X109.538Y-133.35
X364.331Y-133.35
X252.412Y-114.3
X109.538Y-57.15
X171.45Y-57.15
X400.05Y-28.575
X200.025Y-76.2
X285.75Y-57.15
X178.594Y-95.25
X109.538Y-76.2
X295.275Y-76.2
X233.362Y-114.3
X204.788Y-95.25
X300.038Y-95.25
X197.644Y-133.35
X66.675Y-133.35
X242.888Y-95.25
X409.543Y-122.555
X421.481Y-114.3
X433.419Y-122.555
X385.762Y-114.3
X128.588Y-28.575
X352.425Y-28.575
T0
M30
